<svg id="Layer_1" data-name="Layer 1" xmlns="http://www.w3.org/2000/svg" viewBox="0 0 475 475"><defs><style>.cls-1{fill:#29abe2;}</style></defs><title>Artboard 1</title><path class="cls-1" d="M473.68,464a10,10,0,0,1-10,10H11.32a10,10,0,0,1-10-10V196.47a10,10,0,0,1,10-10H227.5A39.18,39.18,0,0,0,245.84,181l31.69-21a39.18,39.18,0,0,1,18.34-5.52h167.8a10,10,0,0,1,10,10Z"/><path class="cls-1" d="M258,107.84c-3.41-4.31-10.7-7.84-16.2-7.84H11.32a10,10,0,0,0-10,10v49.92a10,10,0,0,0,10,10H214.9a40.28,40.28,0,0,0,18.42-5.4L271,140.36a8.9,8.9,0,0,0,2.22-13.24Z"/></svg>