<svg id="Layer_1" data-name="Layer 1" xmlns="http://www.w3.org/2000/svg" viewBox="0 0 400 400"><defs><style>.cls-1{fill:#ef7e00;}</style></defs><title>Artboard 1</title><path class="cls-1" d="M397.43,63.51A13,13,0,0,0,385,53.57H229.5a5.73,5.73,0,0,0-.79,0c-.95.13-1.23-.23-1.23-1.2q0-19.79,0-39.58V11.34c-1.63.28-3.12.52-4.6.78l-25.19,4.5-25,4.46-22.84,4.09-25.19,4.49L99.59,34.12,74.49,38.6,50.57,42.87,25.48,47.33.59,51.79a3.06,3.06,0,0,1-.59,0V359.53c2.83.48,5.67.93,8.5,1.43q10.89,1.93,21.77,3.89l24.11,4.31,25.09,4.46,22.84,4.09,25,4.45,25.19,4.5,25,4.45,24.11,4.31,23.92,4.25,2,.32v-1.27q0-24.22,0-48.43c0-1.48,0-1.48,1.52-1.48q77.62,0,155.25,0c5.91,0,10-2.73,12.49-8a27,27,0,0,0,1.12-3.57V65.11C397.72,64.58,397.56,64,397.43,63.51ZM82.71,88.74a1,1,0,0,1,0,2A1,1,0,0,1,82.71,88.74Zm65,108.41a40.85,40.85,0,0,1-8.15,17.15c-5.62,6.83-12.94,10.79-21.51,12.59a90.46,90.46,0,0,1-14.21,1.4c-2.51.13-5,.27-7.54.42a3.18,3.18,0,0,0-.55.14V272c-.44,0-.79.06-1.14.06-6.89,0-13.79,0-20.68,0-.91,0-1.16-.25-1.16-1.16q0-64.34,0-128.68c0-.94.3-1.16,1.19-1.16,7.62,0,15.25-.08,22.87,0s15.52.46,23.26.15c8.95-.36,15.52,3.5,20.87,10.18a40.78,40.78,0,0,1,8.73,21.08C150.67,180.81,149.57,189,147.7,197.15ZM385,68.31q0,66.34,0,132.68t0,132.88c0,1.94.18,1.68-1.71,1.68H227.5v-1.38q0-15.47,0-30.93c0-1.75-.24-1.61,1.58-1.61H350V286.16H229c-1.69,0-1.51.16-1.51-1.48q0-11.94,0-23.87c0-1.35,0-1.35,1.35-1.35H350V244H227.58V200.36c.37.4.62.65.85.92,8.36,9.48,18.68,15.67,31.16,17.68,17.76,2.87,33.27-2.1,46.18-14.62a53.61,53.61,0,0,0,15.87-31.12c.38-2.45.5-4.94.71-7.41.11-1.23.06-1.26-1.22-1.26H269.92c-1.41,0-1.42,0-1.42-1.38q0-26.31,0-52.61v-1.47c-16.54.37-30,6.93-40.93,19.45V66.83H383.46C385.11,66.84,385,66.63,385,68.31Z"/><path class="cls-1" d="M330.69,156.5H277V101.35a49.11,49.11,0,0,1,18.76,3.45,53.58,53.58,0,0,1,27.34,23.51A55.33,55.33,0,0,1,330.69,156.5Z"/><path class="cls-1" d="M96.35,165c4.73-.79,9.36-1.58,14-.37,5.27,1.39,9.11,4.57,10.81,9.85a28.13,28.13,0,0,1-.59,19.62c-2.48,6.14-7.12,9.52-13.85,9.57-3.2,0-6.41-.27-9.62-.4-.62,0-.76-.34-.75-.9,0-1.49,0-3,0-4.47q0-15.8,0-31.61Z"/></svg>